<svg width="56" height="36" viewBox="0 0 56 36" fill="none" xmlns="http://www.w3.org/2000/svg">
<path fill-rule="evenodd" clip-rule="evenodd" d="M53.9547 11.919C53.5123 11.4356 52.6274 7.56898 48.1293 5.98088C44.8109 4.80707 41.2714 5.15231 38.0268 6.39516C36.9207 6.80945 36.1833 7.29278 35.2985 7.70707C34.2661 8.39755 33.3812 9.36421 32.5701 10.538C35.2247 6.18802 36.3308 3.9785 35.8884 2.45945C35.5934 1.28564 34.7823 0.180875 33.4549 0.111827C31.7589 -0.0262682 29.473 2.32135 27.8507 1.97611C27.1133 1.83802 25.9334 0.526113 23.8687 0.180875C22.4677 -0.0262682 21.2141 0.526113 20.7716 1.83802C20.5504 2.66659 20.108 3.90945 21.2878 5.70469C22.0252 7.43088 22.8364 8.53564 23.4263 9.36421C22.7626 8.81183 22.099 8.3285 21.2878 7.77612C18.0432 5.70469 12.7339 4.39278 8.45701 5.91183C7.57213 6.25707 6.53976 6.80945 5.94984 7.29278C3.00023 9.70945 3.29519 10.9523 2.63153 11.7809C2.33657 12.1261 2.04161 12.2642 1.67291 12.8166C1.37795 13.1618 1.15673 13.5761 0.935505 14.1285C0.0506226 16.5452 1.82039 18.2714 3.44267 19.0309C4.47504 19.5142 5.72862 19.6523 6.76098 19.0309C7.49839 18.6166 8.08831 17.2356 7.35091 16.1999C7.27717 18.2714 5.5074 18.1333 4.47504 17.6499C3.44267 17.0976 3.00023 15.6476 3.81137 14.4737C4.4013 13.6452 5.58114 13.0237 7.05594 12.8166C9.04693 12.6095 10.5217 13.369 12.3652 14.2666C12.144 14.3356 11.8491 14.4737 11.4066 14.819C8.53075 16.5452 4.32756 21.1023 8.23579 24.2785C9.63685 25.4523 8.75197 24.2785 9.63685 25.7285C12.9552 30.5618 19.0756 25.5904 15.6836 22.6214C15.831 23.7261 16.1997 24.1404 15.3886 25.1761C13.9138 27.0404 10.2268 25.9357 11.5541 22.138C12.0703 20.688 13.4713 19.3761 15.3149 19.0999C17.6008 18.7547 18.117 18.8928 18.5594 20.7571C19.2968 19.5833 19.9605 19.0999 20.9191 18.4785C21.7303 17.9261 22.6889 17.5809 23.7212 17.3047C22.3202 17.788 21.0666 18.6166 20.1817 19.5142C19.6655 20.0666 19.1493 20.4809 18.6332 21.1714C17.0846 23.1737 16.1997 25.5904 16.5684 28.0761C17.0846 31.4595 19.9605 32.7714 20.2554 33.1166C20.6979 33.669 20.7716 34.1523 21.7303 34.6357C24.4586 36.1547 27.2608 33.1857 26.5234 31.4595C26.1547 30.6309 25.5647 30.4928 24.4586 30.4928L24.6799 30.6309L24.8273 30.6999C25.8597 31.1142 25.6385 32.219 25.0486 32.7714C23.7212 34.0833 21.3615 32.8404 21.7303 30.1476C22.0252 28.1452 23.795 26.9714 24.9748 25.5214C26.5971 23.4499 27.6295 20.5499 28.3669 17.9952C29.178 20.619 30.1366 23.4499 31.7589 25.5214C32.9388 26.9714 34.7085 28.1452 35.0035 30.1476C35.3722 32.8404 33.0125 34.0833 31.6852 32.7714C31.0953 32.219 30.874 31.1142 31.9064 30.6999L32.0539 30.6309L32.2751 30.4928C31.169 30.4928 30.5791 30.6309 30.2104 31.4595C29.473 33.2547 32.2751 36.1547 35.0035 34.6357C35.9621 34.0833 36.0359 33.669 36.4783 33.1166C36.7733 32.7714 39.6491 31.4595 40.1653 28.0761C40.534 25.5904 39.6491 23.2428 38.1006 21.1714C37.5844 20.4809 37.0682 20.0666 36.552 19.5142C35.6672 18.6166 34.3398 17.788 32.9388 17.3047C35.151 17.788 37.2157 18.8928 38.543 21.1023C38.7642 17.5118 43.4836 17.9261 45.1059 21.9999C45.917 24.0714 45.5483 25.6595 43.6311 26.0738C42.525 26.2809 42.3038 25.7976 41.7139 25.3142C40.9027 24.4857 41.1239 23.7952 41.3452 22.6904C39.1329 24.4166 40.829 27.0404 43.1149 27.5238C44.4422 27.7999 45.917 27.6618 47.0232 25.6595C47.3181 25.1761 47.1706 25.1761 47.6868 24.8309C48.7929 24.1404 49.9728 23.1047 50.0465 21.4476C50.1202 19.9285 49.1616 18.3404 48.4242 17.5118C47.3919 16.338 46.7282 15.7856 45.3271 14.888C44.8847 14.6118 44.5897 14.4047 44.3685 14.3356C45.9908 13.5071 47.6131 12.6785 49.6041 12.8856C53.3648 13.2309 54.3972 16.4761 52.185 17.6499C51.2263 18.1333 49.6041 18.1333 49.3828 16.7523C49.3828 16.6833 49.3828 16.5452 49.3828 16.5452L49.2354 16.269C48.9404 17.5809 48.8667 18.4095 49.899 19.0309C52.1112 20.4809 56.9781 17.9261 55.7245 14.1976C55.2083 12.8856 54.6184 12.6095 53.9547 11.919ZM21.804 2.2523C21.9515 1.76897 22.6151 1.35469 22.9838 1.14754C24.6061 0.388018 27.482 3.14992 28.4406 3.01183C30.4316 2.59754 32.0539 0.940399 33.2337 1.00945C33.8237 1.07849 35.0035 1.35469 34.9298 2.32135C34.856 3.08088 34.7085 5.49754 32.865 7.98326C31.2427 10.1928 30.8003 12.9547 29.9154 14.6118C29.6205 15.0952 29.2518 15.5095 28.9568 15.7856C29.3255 14.0595 29.6942 11.988 29.1043 10.469C29.2518 10.538 29.473 10.6071 29.5467 10.538C29.7679 10.3999 29.7679 9.9166 29.3992 9.43326C29.1043 8.94993 28.6618 8.67374 28.3669 8.88088C28.1457 9.01898 28.1457 9.50231 28.5144 9.98564C28.5881 10.0547 28.6618 10.1237 28.7356 10.1928C29.0305 11.8499 28.8093 13.9904 28.4406 16.1999C28.4406 16.1999 28.4406 16.1999 28.4406 16.269C28.4406 16.269 28.4406 16.269 28.3669 16.269C27.9982 13.438 27.9982 10.3999 28.3669 8.39755C28.5144 8.53564 28.7356 8.60469 28.8831 8.53564C29.0305 8.46659 29.0305 8.12136 28.8093 7.77612C28.5881 7.43088 28.2931 7.29278 28.0719 7.36183C27.9244 7.43088 27.9244 7.77612 28.1457 8.12136C28.1457 8.1904 28.2194 8.1904 28.2194 8.25945C26.9658 10.1928 27.4082 13.5761 27.777 15.9237C27.5557 15.7166 27.2608 15.5095 27.1133 15.1642C26.4496 13.7142 26.0809 11.1595 25.4173 10.1237C24.4586 8.53564 23.2051 7.22374 22.3202 5.63564C21.7303 4.80707 21.4353 3.28802 21.804 2.2523ZM3.51641 11.1595C3.88511 10.1237 4.69626 9.15707 5.28618 8.4666C6.02358 7.63802 6.9822 7.08564 8.08831 6.60231C12.2915 4.80707 17.0846 6.18802 20.5504 8.74279C22.3202 10.0547 24.8273 13.2999 24.9011 15.7856C24.1637 14.1976 23.9425 13.2999 22.9101 11.988C22.3939 11.2976 20.5504 9.57136 19.6655 9.29517L20.3292 9.84755C21.5828 10.6761 23.6475 13.369 23.9425 14.888C23.3525 14.4737 22.5414 12.2642 18.7069 9.98564C16.7159 8.81183 13.5451 7.70707 10.6692 7.91421C13.3239 7.91421 16.421 9.15707 18.2645 10.2618C19.9605 11.2975 22.4677 13.5071 23.2051 15.0952C22.8364 14.888 21.6565 13.5071 19.7393 12.4714C18.6332 11.8499 16.7897 11.0214 15.3149 10.8833C16.6422 11.1595 19.0019 12.4714 19.9605 13.0928C21.1403 13.8523 22.099 14.819 23.0576 15.8547C23.2051 15.9928 23.2788 16.1309 23.3525 16.338C18.2645 15.0952 14.43 11.2285 9.19441 10.3309C6.76098 9.98564 5.58114 10.469 3.51641 11.1595ZM11.9228 17.8571C10.8904 18.3404 10.0793 19.238 9.48937 20.2047C8.75197 21.5166 8.67823 22.6214 8.82571 24.1404C5.21244 22.3452 8.23579 15.5095 13.3976 16.0618C12.8077 16.269 12.0703 16.338 11.4066 16.6142C10.153 17.0976 9.19441 17.8571 8.60449 19.0309C8.30953 19.5833 8.01457 20.3428 8.01457 20.9642C8.16205 19.3761 10.3005 17.6499 12.2178 17.0285C14.43 16.338 16.2735 16.4071 18.3382 16.4071C18.6332 16.4761 18.8544 16.4761 19.1493 16.5452C16.4947 16.6142 13.9138 16.8904 11.9228 17.8571ZM20.108 28.0761C19.3706 29.6642 19.4443 30.769 19.7393 32.1499C19.1493 31.8738 18.1907 30.838 17.8958 30.4238C16.2735 28.2142 16.6422 24.969 18.1907 22.6214C18.7069 21.8618 19.2968 21.1714 19.8867 20.688C20.9191 19.7214 21.8777 19.3071 23.0576 18.7547C23.3525 18.6166 23.8687 18.4785 24.3112 18.4095C25.1223 18.2714 26.3021 18.0642 27.187 18.2023C25.3435 18.2714 23.7212 18.7547 22.2464 19.7214C21.8777 19.9285 21.1403 20.4809 20.9191 20.8261L21.509 20.4118C21.7302 20.2737 21.8777 20.1357 22.099 19.9976C22.9838 19.4452 25.4173 18.4785 26.3759 18.6856C25.9334 18.6856 24.2374 19.5142 23.795 19.7904C23.0576 20.1357 22.1727 20.7571 21.509 21.4476C19.9605 22.8976 19.0019 24.4166 18.3382 26.7642C19.0019 24.6928 20.1817 23.1047 21.509 21.8618C22.5414 20.8952 25.0486 19.4452 26.2284 19.3071L24.9748 20.0666C23.8687 20.8261 21.9515 22.7595 21.5828 23.9333C22.0252 22.7595 24.7536 20.3428 26.3759 19.6523C26.6708 19.5142 26.9658 19.3761 27.2608 19.3071C25.9334 22.138 21.6565 24.6928 20.108 28.0761ZM36.552 20.7571C37.142 21.3095 37.7319 21.9999 38.2481 22.6904C39.7966 25.038 40.2391 28.2833 38.543 30.4928C38.2481 30.838 37.2894 31.9428 36.6995 32.219C36.9945 30.769 37.0682 29.7333 36.3308 28.1452C34.7823 24.7618 30.5053 22.2071 29.178 19.4452C29.5467 19.5142 29.7679 19.6523 30.0629 19.7904C31.6114 20.4809 34.4136 22.8976 34.856 24.0714C34.5611 22.8976 32.6438 20.9642 31.464 20.2047L30.0629 19.3761C31.2427 19.5142 33.7499 20.9642 34.7823 21.9309C36.1833 23.1737 37.3632 24.8309 37.9531 26.8333C37.3632 24.4857 36.3308 22.9666 34.7823 21.5166C34.1186 20.8952 33.2337 20.2737 32.4963 19.8595C32.0539 19.5833 30.3579 18.8237 29.9154 18.7547C30.874 18.6166 33.3075 19.5142 34.1924 20.0666C34.4136 20.2047 34.5611 20.3428 34.7823 20.4809L35.3722 20.8952C35.151 20.4809 34.4136 19.9976 34.0449 19.7904C32.6438 18.8237 31.0215 18.3404 29.1043 18.2714C29.9892 18.0642 31.169 18.2714 31.9801 18.4785C32.3488 18.5476 32.9388 18.6856 33.2337 18.8237C34.6348 19.3761 35.5197 19.7904 36.552 20.7571ZM47.6131 24.1404C48.203 17.788 42.8937 16.6142 37.3632 16.5452C37.6581 16.4761 37.8794 16.4761 38.1743 16.4071C38.9117 16.4071 39.7229 16.4071 40.4603 16.4071C42.7462 16.5452 45.1059 16.9595 46.8019 18.4095C47.908 19.3761 47.908 19.9285 48.4242 20.8261C48.3505 18.8237 46.7282 17.3047 45.0322 16.6142C44.2948 16.338 43.7048 16.269 43.0412 16.0618C48.203 15.5095 51.1526 22.5523 47.6131 24.1404ZM47.1706 10.3999C42.0826 11.2285 37.2894 15.6476 33.0125 16.4071C33.2337 15.9928 33.5287 15.7856 33.8237 15.4404C35.2247 13.7833 39.3542 11.1595 41.1239 10.9523C39.3542 10.9523 36.1833 12.6785 34.7823 13.8523L33.2337 15.3023C33.7499 13.9214 36.552 11.3666 38.1743 10.3309C40.3128 9.01898 42.8937 8.12136 45.917 7.98326C42.525 7.98326 40.1653 8.74279 37.6581 10.1928C36.552 10.8142 35.4459 11.7118 34.7085 12.4023C34.2661 12.8856 32.6438 14.6809 32.4963 15.1642C32.5701 13.9214 34.5611 11.2975 35.5934 10.3999C35.8884 10.1928 36.1096 9.98564 36.3308 9.7785L37.142 9.15707C36.552 9.36421 35.5934 10.0547 35.151 10.3999C33.4549 11.8499 32.2751 13.6452 31.6114 15.8547C31.6114 14.7499 32.2751 13.369 32.7175 12.4714C32.9388 11.988 33.3075 11.4356 33.6024 11.0904C34.7085 9.7785 35.5934 8.81183 37.2157 7.84517C38.1743 7.29278 39.2067 6.80945 40.3865 6.39516C44.0735 5.22135 48.6454 5.70469 51.1526 8.39755C51.595 8.81183 52.7749 10.3309 52.9224 11.0904C51.0051 10.3999 49.6041 9.98564 47.1706 10.3999Z" fill="white"/>
</svg>
