<?xml version="1.0" encoding="utf-8"?>
<!-- Generator: Adobe Illustrator 24.0.1, SVG Export Plug-In . SVG Version: 6.00 Build 0)  -->
<svg version="1.1" id="Слой_1" xmlns="http://www.w3.org/2000/svg" xmlns:xlink="http://www.w3.org/1999/xlink" x="0px" y="0px"
	 viewBox="0 0 16 14" style="enable-background:new 0 0 16 14;" xml:space="preserve">
<style type="text/css">
	.st0{fill-rule:evenodd;clip-rule:evenodd;fill:#FFFFFF;}
	.st1{fill:#FFFFFF;}
</style>
<path class="st0" d="M8,0C3.6,0,0,3.1,0,7c0,3.9,3.6,7,8,7c4.4,0,8-3.1,8-7C16,3.1,12.4,0,8,0z M6.2,3.3c0.5,0,0.6,0,1.8,0h0
	c1.2,0,1.3,0,1.8,0c0.5,0,0.8,0.1,1,0.2c0.3,0.1,0.5,0.2,0.8,0.4c0.2,0.2,0.4,0.4,0.5,0.7c0.1,0.2,0.2,0.5,0.2,0.9
	c0,0.4,0,0.5,0,1.5s0,1.1,0,1.5c0,0.4-0.1,0.7-0.2,0.9c-0.1,0.2-0.3,0.5-0.5,0.7c-0.2,0.2-0.5,0.3-0.8,0.4c-0.3,0.1-0.6,0.2-1,0.2
	c-0.5,0-0.6,0-1.8,0c-1.2,0-1.3,0-1.8,0c-0.5,0-0.8-0.1-1-0.2c-0.3-0.1-0.5-0.2-0.8-0.4C4.2,9.9,4.1,9.7,4,9.4
	C3.9,9.2,3.8,8.9,3.8,8.5c0-0.4,0-0.5,0-1.5s0-1.1,0-1.5c0-0.4,0.1-0.7,0.2-0.9c0.1-0.2,0.3-0.5,0.5-0.7c0.2-0.2,0.5-0.3,0.8-0.4
	C5.5,3.4,5.8,3.3,6.2,3.3z"/>
<path class="st0" d="M7.6,3.9l0.2,0l0.1,0c1.1,0,1.3,0,1.7,0c0.4,0,0.6,0.1,0.8,0.1c0.2,0.1,0.3,0.1,0.5,0.3
	c0.1,0.1,0.2,0.3,0.3,0.4c0.1,0.1,0.1,0.3,0.1,0.7c0,0.4,0,0.5,0,1.5c0,1,0,1.1,0,1.5c0,0.4-0.1,0.6-0.1,0.7
	c-0.1,0.2-0.2,0.3-0.3,0.4c-0.1,0.1-0.3,0.2-0.5,0.3C10.4,10,10.1,10,9.7,10c-0.4,0-0.6,0-1.7,0c-1.1,0-1.3,0-1.7,0
	C5.9,10,5.6,10,5.5,9.9C5.3,9.8,5.1,9.8,5,9.6C4.8,9.5,4.7,9.4,4.7,9.2C4.6,9.1,4.5,8.9,4.5,8.5c0-0.4,0-0.5,0-1.5c0-1,0-1.1,0-1.5
	c0-0.4,0.1-0.6,0.1-0.7C4.7,4.6,4.8,4.5,5,4.4c0.1-0.1,0.3-0.2,0.5-0.3C5.6,4,5.9,4,6.3,4C6.7,3.9,6.8,3.9,7.6,3.9L7.6,3.9z
	 M10.3,4.6C10,4.6,9.8,4.8,9.8,5c0,0.2,0.2,0.4,0.5,0.4c0.3,0,0.5-0.2,0.5-0.4C10.8,4.8,10.6,4.6,10.3,4.6L10.3,4.6z M5.8,7
	c0-1.1,1-1.9,2.2-1.9c1.2,0,2.2,0.9,2.2,1.9S9.2,8.9,8,8.9S5.8,8.1,5.8,7z"/>
<path class="st1" d="M8,5.8c0.8,0,1.4,0.6,1.4,1.2c0,0.7-0.6,1.2-1.4,1.2C7.2,8.2,6.6,7.7,6.6,7C6.6,6.3,7.2,5.8,8,5.8z"/>
</svg>
