<?xml version="1.0" encoding="UTF-8"?>
<svg width="99px" height="41px" viewBox="0 0 99 41" version="1.1" xmlns="http://www.w3.org/2000/svg" xmlns:xlink="http://www.w3.org/1999/xlink">
    <title>main / menu [active] / lolgo</title>
    <g id="c3---lv1" stroke="none" stroke-width="1" fill="none" fill-rule="evenodd">
        <g id="[services-hover]" transform="translate(-131.000000, -586.000000)" fill="#FFFFFF">
            <g id="main-/-menu-[services-hover]">
                <g id="main-/-menu-[hover]-/-logo-+-info" transform="translate(131.354095, 547.044776)">
                    <g id="main-/-menu-[active]-/-lolgo" transform="translate(0.980667, 39.582090)">
                        <path d="M85.9681965,14.6335669 C85.9681965,10.9751751 87.5905749,8.23138136 89.753746,8.23138136 C92.2765954,8.23138136 93.53802,10.6094654 93.53802,14.6335669 L85.9681965,14.6335669 Z M96.782139,14.6335669 C96.782139,9.511689 94.4391288,6.58471672 89.5726314,6.58471672 C85.0670878,6.58471672 82.5442384,10.6094654 82.5442384,15.5481648 C82.5442384,20.4868641 85.0670878,24.5116129 90.1140619,24.5116129 C92.8167504,24.5116129 94.9799216,23.4138364 96.6022999,20.6700426 L95.8810303,20.1218017 C94.6189679,21.9509976 93.1777041,23.0481267 90.8346938,23.0481267 C87.770414,23.0481267 85.9681965,20.1218017 85.9681965,16.097053 L96.7100758,16.097053 L96.782139,14.6335669 Z M78.2191716,4.38981115 C78.2191716,0.731419433 77.497902,0 74.9750526,0 L71.7309336,0 L71.7309336,0.731419433 L72.4515655,0.731419433 C74.6140989,0.731419433 74.9750526,2.19490557 74.9750526,4.38981115 L74.9750526,24.1459031 L78.2191716,24.1459031 L78.2191716,4.38981115 Z M69.9287161,24.1459031 L69.9287161,14.2678571 C69.9287161,7.68249315 66.8644363,6.58471672 63.6203173,6.58471672 C61.4571461,6.58471672 59.1147736,6.95107371 58.2136649,7.86567164 C57.3119184,8.78026957 57.3119184,9.87739872 57.3119184,11.1583536 L58.9342968,11.1583536 C59.4750896,8.78026957 60.9169911,8.04820286 62.8990477,8.04820286 C65.0622188,8.04820286 66.6839594,9.14597929 66.6839594,14.2678571 L65.6023739,14.2678571 C60.737152,14.2678571 56.4108097,15.3656336 56.4108097,19.389735 C56.4108097,23.4138364 59.6549287,24.5116129 61.6382607,24.5116129 C64.3415869,24.5116129 65.9633275,23.4138364 66.6839594,22.4992385 L66.8644363,22.4992385 L68.1258609,24.1459031 L69.9287161,24.1459031 Z M66.6839594,20.6700426 C65.9633275,21.7678191 65.0622188,22.8655955 63.2600013,22.8655955 C61.4571461,22.8655955 59.8354055,21.7678191 59.8354055,19.389735 C59.8354055,17.1948294 61.9979389,15.7313433 65.6023739,15.7313433 L66.6839594,15.7313433 L66.6839594,20.6700426 Z M49.9232094,12.0729516 C49.9232094,15.1824551 48.3014688,16.2802315 46.3181368,16.2802315 C44.3360802,16.2802315 42.7143396,15.1824551 42.7143396,12.0729516 C42.7143396,8.96280079 44.3360802,7.86567164 46.3181368,7.86567164 C48.3014688,7.86567164 49.9232094,9.14597929 49.9232094,12.0729516 L49.9232094,12.0729516 Z M46.6790905,21.5846406 C49.5622558,21.9509976 51.004795,23.4138364 51.004795,25.7919205 C51.004795,28.7188928 49.021463,29.9992004 46.3181368,29.9992004 C43.6154483,29.9992004 41.632754,28.7188928 41.632754,25.7919205 C41.632754,23.4138364 42.8941787,22.1335288 44.6963962,21.4021094 L46.6790905,21.5846406 Z M39.4702206,12.0729516 C39.4702206,14.4510356 40.7310076,16.097053 42.1729091,16.8291197 C41.632754,17.1948294 40.9121221,17.7437176 40.9121221,18.8408468 C40.9121221,19.9386232 41.632754,20.6700426 42.3533859,21.0363996 C40.1908525,21.7678191 38.388635,23.4138364 38.388635,25.7919205 C38.388635,29.9992004 41.8132309,31.4626866 46.3181368,31.4626866 C50.8243182,31.4626866 54.248914,29.9992004 54.248914,25.7919205 C54.248914,21.7678191 50.6438413,20.1218017 46.3181368,20.1218017 C43.7952874,20.1218017 42.5338627,19.756092 42.5338627,18.8408468 C42.5338627,17.9262489 43.7952874,17.5605391 46.3181368,17.5605391 C50.1030486,17.5605391 53.1666907,16.2802315 53.1666907,12.0729516 C53.1666907,10.2437557 52.0857429,8.78026957 50.6438413,8.04820286 L50.6438413,7.86567164 L52.9868516,7.49996193 L52.9868516,6.58471672 L46.3181368,6.58471672 C42.5338627,6.58471672 39.4702206,7.86567164 39.4702206,12.0729516 L39.4702206,12.0729516 Z M25.4121591,14.6335669 C25.4121591,10.9751751 27.0345374,8.23138136 29.1970709,8.23138136 C31.7205579,8.23138136 32.9813449,10.6094654 32.9813449,14.6335669 L25.4121591,14.6335669 Z M36.2261016,14.6335669 C36.2261016,9.511689 33.8824536,6.58471672 29.016594,6.58471672 C24.5110504,6.58471672 21.988201,10.6094654 21.988201,15.5481648 C21.988201,20.4868641 24.5110504,24.5116129 29.5573868,24.5116129 C32.260713,24.5116129 34.4238841,23.4138364 36.0456248,20.6700426 L35.3249929,20.1218017 C34.0629305,21.9509976 32.6216667,23.0481267 30.2786564,23.0481267 C27.2143766,23.0481267 25.4121591,20.1218017 25.4121591,16.097053 L36.1540384,16.097053 L36.2261016,14.6335669 Z M12.61616,19.2065565 C14.9591702,23.2313052 16.5809109,24.5116129 19.1037602,24.5116129 C20.004869,24.5116129 20.9066154,24.3290816 21.2669314,24.1459031 L21.2669314,23.4138364 C19.4647139,23.2313052 18.239002,22.3167073 16.4010718,19.2065565 L12.61616,12.804371 C15.1396471,12.2561301 18.3831283,10.7919966 18.3831283,6.58471672 C18.3831283,0.731419433 12.4356832,0 9.37204101,0 L0,0 L0,0.731419433 L0.721269623,0.731419433 C2.88380304,0.731419433 3.24475671,2.19490557 3.24475671,4.38981115 L3.24475671,24.1459031 L6.48823797,24.1459031 L6.48823797,12.9875495 L9.01172506,12.9875495 L12.61616,19.2065565 Z M9.19156417,11.7072419 C8.29045544,11.7072419 7.20950759,11.5240634 6.48823797,11.3415321 L6.48823797,1.64601736 C7.20950759,1.46283887 8.29045544,1.28030765 9.19156417,1.28030765 C11.1742585,1.28030765 14.7786934,2.74379379 14.7786934,6.58471672 C14.7786934,10.2437557 11.1742585,11.7072419 9.19156417,11.7072419 L9.19156417,11.7072419 Z" id="Fill-26"></path>
                        <path d="M92.403161,37.4467314 L92.9003737,37.4467314 L94.0732858,35.7554114 C94.1587044,35.6206927 94.2925694,35.4306193 94.3085057,35.379933 L94.3193424,35.379933 C94.3193424,35.424617 94.3027686,35.6206927 94.3027686,35.7554114 L94.3027686,37.4467314 L94.8069933,37.4467314 L94.8069933,34.6123032 L94.3027686,34.6123032 L93.1362311,36.3042901 C93.0457129,36.4383419 92.9169475,36.6344176 92.8952741,36.6851039 L92.8850749,36.6851039 C92.8901745,36.657093 92.9003737,36.4556819 92.9003737,36.3042901 L92.9003737,34.6123032 L92.403161,34.6123032 L92.403161,37.4467314 Z M89.201876,37.4467314 L89.6997262,37.4467314 L90.8720008,35.7554114 C90.9574194,35.6206927 91.0912844,35.4306193 91.1078581,35.379933 L91.1180573,35.379933 C91.1180573,35.424617 91.102121,35.6206927 91.102121,35.7554114 L91.102121,37.4467314 L91.6057083,37.4467314 L91.6057083,34.6123032 L91.102121,34.6123032 L89.9355835,36.3042901 C89.8437904,36.4383419 89.7156625,36.6344176 89.6946265,36.6851039 L89.6831524,36.6851039 C89.6888895,36.657093 89.6997262,36.4556819 89.6997262,36.3042901 L89.6997262,34.6123032 L89.201876,34.6123032 L89.201876,37.4467314 Z M86.9911917,37.4467314 L87.5100778,37.4467314 L87.5100778,35.0778163 L88.6880895,35.0778163 L88.6880895,34.6123032 L86.9911917,34.6123032 L86.9911917,37.4467314 Z M83.9766802,36.0241819 C83.9766802,35.4359547 84.3948488,35.0157924 84.9079979,35.0157924 C85.4166847,35.0157924 85.839953,35.4359547 85.839953,36.0241819 C85.839953,36.6177445 85.4166847,37.0439091 84.9079979,37.0439091 C84.3948488,37.0439091 83.9766802,36.6177445 83.9766802,36.0241819 L83.9766802,36.0241819 Z M83.4469574,36.0241819 C83.4469574,36.886515 84.1003459,37.5140907 84.9079979,37.5140907 C85.7111876,37.5140907 86.3639387,36.886515 86.3639387,36.0241819 C86.3639387,35.1671842 85.7111876,34.5456108 84.9028982,34.5456108 C84.1003459,34.5456108 83.4469574,35.1671842 83.4469574,36.0241819 L83.4469574,36.0241819 Z M80.3954736,37.4747422 C81.1929263,37.4300583 81.5033656,36.7691363 81.5033656,35.4866409 L81.5033656,35.0604763 L82.3008183,35.0604763 L82.3008183,37.4467314 L82.8209793,37.4467314 L82.8209793,34.6123032 L81.0055154,34.6123032 L81.0055154,35.4866409 C81.0055154,36.5117035 80.7913314,36.9258635 80.3954736,36.9878875 L80.3954736,37.4747422 Z M77.7513218,36.0241819 C77.7513218,35.4359547 78.168853,35.0157924 78.6826395,35.0157924 C79.1906889,35.0157924 79.6139572,35.4359547 79.6139572,36.0241819 C79.6139572,36.6177445 79.1906889,37.0439091 78.6826395,37.0439091 C78.168853,37.0439091 77.7513218,36.6177445 77.7513218,36.0241819 L77.7513218,36.0241819 Z M77.2209616,36.0241819 C77.2209616,36.886515 77.8743501,37.5140907 78.6826395,37.5140907 C79.4851918,37.5140907 80.1385804,36.886515 80.1385804,36.0241819 C80.1385804,35.1671842 79.4851918,34.5456108 78.6775399,34.5456108 C77.8743501,34.5456108 77.2209616,35.1671842 77.2209616,36.0241819 L77.2209616,36.0241819 Z M75.5189641,37.4467314 L76.0321132,37.4467314 L76.0321132,35.0778163 L76.9806421,35.0778163 L76.9806421,34.6123032 L74.5761723,34.6123032 L74.5761723,35.0778163 L75.5189641,35.0778163 L75.5189641,37.4467314 Z M72.3820618,36.6290822 C72.3820618,36.1082143 73.0991955,36.0748681 73.4842167,36.0748681 L73.6180816,36.0748681 L73.6180816,36.1809091 C73.6180816,36.6010714 73.3458895,37.0825907 72.8907487,37.0825907 C72.552899,37.0825907 72.3820618,36.8531688 72.3820618,36.6290822 L72.3820618,36.6290822 Z M71.8625382,36.6737661 C71.8625382,37.2059717 72.2960057,37.5140907 72.7670829,37.5140907 C73.1686778,37.5140907 73.5007904,37.2619934 73.6556913,36.9372012 L73.666528,36.9372012 C73.666528,36.9372012 73.6505917,37.0325714 73.6505917,37.1612878 L73.6505917,37.4467314 L74.1376052,37.4467314 L74.1376052,35.6547058 C74.1376052,34.9377622 73.7462095,34.5456108 73.0673229,34.5456108 C72.6867639,34.5456108 72.2749698,34.6910002 72.0550488,34.8817406 L72.2641331,35.2792275 C72.4834167,35.1171649 72.7568837,35.0044547 73.0239762,35.0044547 C73.3611884,35.0044547 73.6180816,35.1618488 73.6180816,35.626695 L73.6180816,35.6827167 L73.4791171,35.6827167 C72.9175216,35.6827167 71.8625382,35.7834222 71.8625382,36.6737661 L71.8625382,36.6737661 Z M68.0671477,37.4467314 L68.5700975,37.4467314 L68.6880262,35.7614137 C68.6982254,35.5926819 68.6822891,35.2738921 68.6822891,35.2738921 L68.6937633,35.2738921 C68.6937633,35.2738921 68.7785444,35.4866409 68.8646005,35.6940544 L69.5071523,37.1052662 L69.950819,37.1052662 L70.5933709,35.6880521 C70.6953632,35.4699678 70.7648455,35.2738921 70.7648455,35.2738921 L70.7756822,35.2738921 C70.7756822,35.2738921 70.7648455,35.5926819 70.7699451,35.7614137 L70.8878738,37.4467314 L71.391461,37.4467314 L71.1556037,34.6123032 L70.5882712,34.6123032 L69.8819742,36.2142553 C69.8124919,36.3883225 69.7321729,36.595736 69.7321729,36.595736 L69.7213362,36.595736 C69.7213362,36.595736 69.6461169,36.3823202 69.571535,36.2142553 L68.8811742,34.6123032 L68.3023676,34.6123032 L68.0671477,37.4467314 Z M65.1654652,36.0241819 C65.1654652,35.4359547 65.5829964,35.0157924 66.0967829,35.0157924 C66.6054698,35.0157924 67.0281006,35.4359547 67.0281006,36.0241819 C67.0281006,36.6177445 66.6054698,37.0439091 66.0967829,37.0439091 C65.5829964,37.0439091 65.1654652,36.6177445 65.1654652,36.0241819 L65.1654652,36.0241819 Z M64.635105,36.0241819 C64.635105,36.886515 65.2884935,37.5140907 66.0967829,37.5140907 C66.8999727,37.5140907 67.5533612,36.886515 67.5533612,36.0241819 C67.5533612,35.1671842 66.8999727,34.5456108 66.0916833,34.5456108 C65.2884935,34.5456108 64.635105,35.1671842 64.635105,36.0241819 L64.635105,36.0241819 Z M62.9331076,37.4467314 L63.4468941,37.4467314 L63.4468941,35.0778163 L64.3947855,35.0778163 L64.3947855,34.6123032 L61.9909532,34.6123032 L61.9909532,35.0778163 L62.9331076,35.0778163 L62.9331076,37.4467314 Z M59.1861634,36.0295173 C59.1861634,36.8811796 59.7802689,37.5140907 60.6363672,37.5140907 C61.0596355,37.5140907 61.4720671,37.3346881 61.7174862,37.0605822 L61.5090393,36.6624284 C61.3005924,36.8918504 60.9735795,37.0439091 60.6739769,37.0439091 C60.1123815,37.0439091 59.7158862,36.6010714 59.7158862,36.0241819 C59.7158862,35.4472924 60.1123815,35.0157924 60.6580406,35.0157924 C60.9423443,35.0157924 61.2253731,35.1505111 61.4076844,35.3412514 L61.653741,34.9597707 C61.3968477,34.6743271 60.9952528,34.5456108 60.6363672,34.5456108 C59.7853685,34.5456108 59.1861634,35.1898596 59.1861634,36.0295173 L59.1861634,36.0295173 Z M54.8234405,37.4467314 L55.3206532,37.4467314 L56.4935653,35.7554114 C56.5789839,35.6206927 56.7128488,35.4306193 56.7287851,35.379933 L56.7396218,35.379933 C56.7396218,35.424617 56.7230481,35.6206927 56.7230481,35.7554114 L56.7230481,37.4467314 L57.2266353,37.4467314 L57.2266353,34.6123032 L56.7230481,34.6123032 L55.5565105,36.3042901 C55.4659923,36.4383419 55.337227,36.6344176 55.3155536,36.6851039 L55.3053543,36.6851039 C55.310454,36.657093 55.3206532,36.4556819 55.3206532,36.3042901 L55.3206532,34.6123032 L54.8234405,34.6123032 L54.8234405,37.4467314 Z M56.016751,34.2935134 C56.4342822,34.2935134 56.8091041,34.0360806 56.8091041,33.5765698 L56.8091041,33.4925373 L56.39731,33.4925373 L56.39731,33.5652321 C56.39731,33.811994 56.204162,33.9347081 56.016751,33.9347081 C55.8293401,33.9347081 55.6419291,33.811994 55.6419291,33.5652321 L55.6419291,33.4925373 L55.2250354,33.4925373 L55.2250354,33.5765698 C55.2250354,34.0360806 55.6043194,34.2935134 56.016751,34.2935134 L56.016751,34.2935134 Z M51.8089289,36.0241819 C51.8089289,35.4359547 52.2270976,35.0157924 52.7402466,35.0157924 C53.2489335,35.0157924 53.6722018,35.4359547 53.6722018,36.0241819 C53.6722018,36.6177445 53.2489335,37.0439091 52.7402466,37.0439091 C52.2270976,37.0439091 51.8089289,36.6177445 51.8089289,36.0241819 L51.8089289,36.0241819 Z M51.2792061,36.0241819 C51.2792061,36.886515 51.9325947,37.5140907 52.7402466,37.5140907 C53.5434364,37.5140907 54.1961875,36.886515 54.1961875,36.0241819 C54.1961875,35.1671842 53.5434364,34.5456108 52.735147,34.5456108 C51.9325947,34.5456108 51.2792061,35.1671842 51.2792061,36.0241819 L51.2792061,36.0241819 Z M48.2442961,37.4467314 L48.7631822,37.4467314 L48.7631822,36.2315953 L50.1330671,36.2315953 L50.1330671,37.4467314 L50.6532281,37.4467314 L50.6532281,34.6123032 L50.1330671,34.6123032 L50.1330671,35.7660822 L48.7631822,35.7660822 L48.7631822,34.6123032 L48.2442961,34.6123032 L48.2442961,37.4467314 Z M45.0321744,37.4467314 L45.5510605,37.4467314 L45.5510605,36.2315953 L46.9215828,36.2315953 L46.9215828,37.4467314 L47.4411063,37.4467314 L47.4411063,34.6123032 L46.9215828,34.6123032 L46.9215828,35.7660822 L45.5510605,35.7660822 L45.5510605,34.6123032 L45.0321744,34.6123032 L45.0321744,37.4467314 Z M42.0176629,36.0241819 C42.0176629,35.4359547 42.4351941,35.0157924 42.949618,35.0157924 C43.4583049,35.0157924 43.8809357,35.4359547 43.8809357,36.0241819 C43.8809357,36.6177445 43.4583049,37.0439091 42.949618,37.0439091 C42.4351941,37.0439091 42.0176629,36.6177445 42.0176629,36.0241819 L42.0176629,36.0241819 Z M41.4879401,36.0241819 C41.4879401,36.886515 42.1406912,37.5140907 42.949618,37.5140907 C43.7528078,37.5140907 44.4055589,36.886515 44.4055589,36.0241819 C44.4055589,35.1671842 43.7528078,34.5456108 42.943881,34.5456108 C42.1406912,34.5456108 41.4879401,35.1671842 41.4879401,36.0241819 L41.4879401,36.0241819 Z M38.4632293,37.4467314 L38.9610795,37.4467314 L40.1333541,35.7554114 C40.2194102,35.6206927 40.3532751,35.4306193 40.3692114,35.379933 L40.3800481,35.379933 C40.3800481,35.424617 40.3634744,35.6206927 40.3634744,35.7554114 L40.3634744,37.4467314 L40.8670616,37.4467314 L40.8670616,34.6123032 L40.3634744,34.6123032 L39.1969368,36.3042901 C39.1057812,36.4383419 38.9770158,36.6344176 38.9559799,36.6851039 L38.9451432,36.6851039 C38.9502428,36.657093 38.9610795,36.4556819 38.9610795,36.3042901 L38.9610795,34.6123032 L38.4632293,34.6123032 L38.4632293,37.4467314 Z M35.1981991,37.4467314 L37.4356563,37.4467314 L37.4356563,38.1189911 L37.9118332,38.1189911 L37.9118332,36.9758828 L37.5319116,36.9758828 L37.5319116,34.6123032 L37.0072885,34.6123032 L37.0072885,36.9758828 L35.7170852,36.9758828 L35.7170852,34.6123032 L35.1981991,34.6123032 L35.1981991,37.4467314 Z M32.6764381,36.6290822 C32.6764381,36.1082143 33.3942093,36.0748681 33.7792304,36.0748681 L33.9130954,36.0748681 L33.9130954,36.1809091 C33.9130954,36.6010714 33.6396284,37.0825907 33.185125,37.0825907 C32.8472753,37.0825907 32.6764381,36.8531688 32.6764381,36.6290822 L32.6764381,36.6290822 Z M32.1569145,36.6737661 C32.1569145,37.2059717 32.5910195,37.5140907 33.0614592,37.5140907 C33.4630541,37.5140907 33.7958042,37.2619934 33.9507051,36.9372012 L33.9609043,36.9372012 C33.9609043,36.9372012 33.9456055,37.0325714 33.9456055,37.1612878 L33.9456055,37.4467314 L34.432619,37.4467314 L34.432619,35.6547058 C34.432619,34.9377622 34.0412233,34.5456108 33.3616992,34.5456108 C32.9817777,34.5456108 32.5693461,34.6910002 32.3500626,34.8817406 L32.5585094,35.2792275 C32.7784304,35.1171649 33.05126,35.0044547 33.3189899,35.0044547 C33.6562022,35.0044547 33.9130954,35.1618488 33.9130954,35.626695 L33.9130954,35.6827167 L33.7734934,35.6827167 C33.211898,35.6827167 32.1569145,35.7834222 32.1569145,36.6737661 L32.1569145,36.6737661 Z M30.1177049,37.0659176 L30.1177049,36.1755737 L30.6684636,36.1755737 C31.0279867,36.1755737 31.2255968,36.3436386 31.2255968,36.6237468 C31.2255968,36.886515 31.0490226,37.0659176 30.6742007,37.0659176 L30.1177049,37.0659176 Z M30.1177049,35.811433 L30.1177049,34.9877816 L30.609818,34.9877816 C30.9361935,34.9877816 31.0917319,35.1225003 31.0917319,35.379933 C31.0917319,35.6433681 30.9361935,35.811433 30.6263918,35.811433 L30.1177049,35.811433 Z M29.5988188,37.4467314 L30.7545197,37.4467314 C31.3435255,37.4467314 31.7508575,37.1666232 31.7508575,36.6404199 C31.7508575,36.3269655 31.5736458,36.0521927 31.2364335,35.9681603 L31.2364335,35.9621579 C31.4824901,35.8507816 31.6214547,35.6153573 31.6214547,35.3412514 C31.6214547,34.8644006 31.2632065,34.6123032 30.71691,34.6123032 L29.5988188,34.6123032 L29.5988188,37.4467314 Z M26.5843073,36.0241819 C26.5843073,35.4359547 27.0018385,35.0157924 27.5156249,35.0157924 C28.0243118,35.0157924 28.4475801,35.4359547 28.4475801,36.0241819 C28.4475801,36.6177445 28.0243118,37.0439091 27.5156249,37.0439091 C27.0018385,37.0439091 26.5843073,36.6177445 26.5843073,36.0241819 L26.5843073,36.0241819 Z M26.0545845,36.0241819 C26.0545845,36.886515 26.7073355,37.5140907 27.5156249,37.5140907 C28.3188147,37.5140907 28.9715658,36.886515 28.9715658,36.0241819 C28.9715658,35.1671842 28.3188147,34.5456108 27.5105253,34.5456108 C26.7073355,34.5456108 26.0545845,35.1671842 26.0545845,36.0241819 L26.0545845,36.0241819 Z M23.019037,37.4467314 L23.5385606,37.4467314 L23.5385606,36.2315953 L24.9084454,36.2315953 L24.9084454,37.4467314 L25.4279689,37.4467314 L25.4279689,34.6123032 L24.9084454,34.6123032 L24.9084454,35.7660822 L23.5385606,35.7660822 L23.5385606,34.6123032 L23.019037,34.6123032 L23.019037,37.4467314 Z M19.8069153,37.4467314 L20.3264388,37.4467314 L20.3264388,36.2315953 L21.6963237,36.2315953 L21.6963237,37.4467314 L22.2164847,37.4467314 L22.2164847,34.6123032 L21.6963237,34.6123032 L21.6963237,35.7660822 L20.3264388,35.7660822 L20.3264388,34.6123032 L19.8069153,34.6123032 L19.8069153,37.4467314 Z M16.6056303,37.4467314 L17.1034804,37.4467314 L18.2757551,35.7554114 C18.3618111,35.6206927 18.4956761,35.4306193 18.5116124,35.379933 L18.5224491,35.379933 C18.5224491,35.424617 18.5058753,35.6206927 18.5058753,35.7554114 L18.5058753,37.4467314 L19.0094626,37.4467314 L19.0094626,34.6123032 L18.5058753,34.6123032 L17.3393378,36.3042901 C17.2481821,36.4383419 17.1194167,36.6344176 17.0983808,36.6851039 L17.0875441,36.6851039 C17.0926437,36.657093 17.1034804,36.4556819 17.1034804,36.3042901 L17.1034804,34.6123032 L16.6056303,34.6123032 L16.6056303,37.4467314 Z M12.5533465,36.040855 C12.5533465,35.3239114 12.9281684,35.0217947 13.3348629,35.0217947 C13.7849042,35.0217947 14.100443,35.4192816 14.100443,36.0355196 C14.100443,36.6797685 13.7466571,37.0439091 13.3189266,37.0439091 C12.8210764,37.0439091 12.5533465,36.5450498 12.5533465,36.040855 L12.5533465,36.040855 Z M12.0503967,38.5671642 L12.5699203,38.5671642 L12.5699203,37.2786665 C12.5699203,37.133277 12.5482469,37.0325714 12.5482469,37.0325714 L12.5584461,37.0325714 C12.7458571,37.3346881 13.0562963,37.5140907 13.3992456,37.5140907 C14.1112797,37.5140907 14.6250662,36.9318658 14.6250662,36.0295173 C14.6250662,35.1505111 14.1699253,34.5456108 13.4368553,34.5456108 C13.04036,34.5456108 12.6980482,34.7363511 12.5265735,35.0778163 L12.5163743,35.0778163 C12.5163743,35.0778163 12.5316731,34.9824462 12.5316731,34.8644006 L12.5316731,34.6123032 L12.0503967,34.6123032 L12.0503967,38.5671642 Z M10.0800319,37.4467314 L10.5938184,37.4467314 L10.5938184,35.0778163 L11.5417098,35.0778163 L11.5417098,34.6123032 L9.13787753,34.6123032 L9.13787753,35.0778163 L10.0800319,35.0778163 L10.0800319,37.4467314 Z M6.21515912,37.4467314 L6.73404522,37.4467314 L6.73404522,36.2315953 L8.10456749,36.2315953 L8.10456749,37.4467314 L8.62409104,37.4467314 L8.62409104,34.6123032 L8.10456749,34.6123032 L8.10456749,35.7660822 L6.73404522,35.7660822 L6.73404522,34.6123032 L6.21515912,34.6123032 L6.21515912,37.4467314 Z M3.61307917,35.7107275 C3.68829853,35.2398789 4.00383737,34.9657731 4.40543227,34.9657731 C4.7585808,34.9657731 5.04798411,35.2232058 5.06392041,35.7107275 L3.61307917,35.7107275 Z M3.05658338,36.0295173 C3.05658338,36.8698419 3.64558923,37.5140907 4.49658794,37.5140907 C4.87140984,37.5140907 5.28384143,37.3633658 5.54583429,37.1106015 L5.32655073,36.7131147 C5.11236678,36.9151927 4.81786386,37.0439091 4.52846055,37.0439091 C4.04144706,37.0439091 3.62391585,36.7131147 3.59778031,36.102879 L5.56750766,36.102879 C5.5777069,36.0241819 5.58854359,35.9461517 5.58854359,35.8727901 C5.58854359,35.1451757 5.18184907,34.5456108 4.41626896,34.5456108 C3.64558923,34.5456108 3.05658338,35.1278357 3.05658338,36.0295173 L3.05658338,36.0295173 Z M7.01712713e-15,37.4467314 L2.23745728,37.4467314 L2.23745728,38.1189911 L2.71363409,38.1189911 L2.71363409,36.9758828 L2.33371257,36.9758828 L2.33371257,34.6123032 L1.80908939,34.6123032 L1.80908939,36.9758828 L0.518886105,36.9758828 L0.518886105,34.6123032 L7.01712713e-15,34.6123032 L7.01712713e-15,37.4467314 Z" id="Fill-28"></path>
                    </g>
                </g>
            </g>
        </g>
    </g>
</svg>