<?xml version="1.0" encoding="utf-8"?>
<!-- Generator: Adobe Illustrator 24.0.1, SVG Export Plug-In . SVG Version: 6.00 Build 0)  -->
<svg version="1.1" id="Слой_1" xmlns="http://www.w3.org/2000/svg" xmlns:xlink="http://www.w3.org/1999/xlink" x="0px" y="0px"
	 viewBox="0 0 16 16" style="enable-background:new 0 0 16 16;" xml:space="preserve">
<style type="text/css">
	.st0{fill-rule:evenodd;clip-rule:evenodd;fill:#FFFFFF;}
</style>
<path class="st0" d="M8,0C3.6,0,0,3.4,0,7.5C0,11.6,3.6,15,8,15c4.4,0,8-3.4,8-7.5C16,3.4,12.4,0,8,0z M8.7,9.9
	C8.6,9.9,8.4,10,8.4,10H7.9c0,0-1.1,0.1-2.1-0.9C4.7,8,3.8,6,3.8,6s-0.1-0.1,0-0.2C3.8,5.7,4,5.7,4,5.7l1.2,0c0,0,0.1,0,0.2,0.1
	c0.1,0,0.1,0.1,0.1,0.1S5.7,6.4,6,6.8c0.5,0.8,0.7,1,0.9,0.9c0.3-0.1,0.2-1.1,0.2-1.1S7.1,6.2,7,6C6.9,5.9,6.7,5.8,6.6,5.8
	c-0.1,0,0-0.2,0.2-0.2C7,5.5,7.4,5.5,7.8,5.5c0.4,0,0.5,0,0.6,0.1c0.3,0.1,0.3,0.3,0.3,0.8c0,0.1,0,0.3,0,0.5c0,0,0,0.1,0,0.1
	c0,0.3,0,0.5,0.2,0.7c0.1,0.1,0.3,0,0.9-0.9c0.3-0.4,0.5-0.9,0.5-0.9s0-0.1,0.1-0.1c0.1,0,0.2,0,0.2,0l1.3,0c0,0,0.4,0,0.4,0.1
	C12.3,6,12.1,6.4,11.6,7c-0.5,0.6-0.7,0.8-0.7,1c0,0.1,0.2,0.3,0.5,0.5c0.6,0.5,0.8,0.8,0.8,0.9c0,0,0,0,0,0
	c0.3,0.4-0.3,0.5-0.3,0.5l-1.1,0c0,0-0.2,0-0.6-0.2C10,9.7,9.8,9.5,9.7,9.4C9.4,9.1,9.2,8.9,9,8.9C8.7,9,8.7,9.7,8.7,9.7
	S8.7,9.8,8.7,9.9z"/>
</svg>
