<?xml version="1.0" encoding="utf-8"?>
<!-- Generator: Adobe Illustrator 24.0.1, SVG Export Plug-In . SVG Version: 6.00 Build 0)  -->
<svg version="1.1" id="Слой_1" xmlns="http://www.w3.org/2000/svg" xmlns:xlink="http://www.w3.org/1999/xlink" x="0px" y="0px"
	 viewBox="0 0 24 24" style="enable-background:new 0 0 24 24;" xml:space="preserve">
<style type="text/css">
	.st0{fill:#FFFFFF;}
</style>
<title>VK icon</title>
<path class="st0" d="M15.7,0H8.3C1.6,0,0,1.6,0,8.3v7.4C0,22.4,1.6,24,8.3,24h7.4c6.7,0,8.3-1.6,8.3-8.3V8.3C24,1.6,22.4,0,15.7,0z
	 M19.4,17.1h-1.7c-0.7,0-0.9-0.5-2.1-1.7c-1-1-1.5-1.1-1.7-1.1c-0.4,0-0.5,0.1-0.5,0.6v1.6c0,0.4-0.1,0.7-1.3,0.7
	c-1.8,0-3.9-1.1-5.3-3.2C4.6,10.9,4,8.6,4,8.1c0-0.3,0.1-0.5,0.6-0.5h1.7c0.4,0,0.6,0.2,0.8,0.7C8,10.8,9.5,13,10,13
	c0.2,0,0.3-0.1,0.3-0.7V9.7c0-1.2-0.6-1.3-0.6-1.7c0-0.2,0.2-0.4,0.4-0.4h2.7c0.4,0,0.5,0.2,0.5,0.6v3.5c0,0.4,0.2,0.5,0.3,0.5
	c0.2,0,0.4-0.1,0.8-0.5c1.3-1.4,2.2-3.6,2.2-3.6c0.1-0.3,0.3-0.5,0.8-0.5h1.7c0.5,0,0.6,0.3,0.5,0.6c-0.2,1-2.4,4-2.4,4
	c-0.2,0.3-0.3,0.4,0,0.8c0.2,0.3,0.8,0.8,1.2,1.3c0.7,0.8,1.3,1.6,1.5,2C20.1,16.9,19.9,17.1,19.4,17.1L19.4,17.1z"/>
</svg>
