<?xml version="1.0" encoding="UTF-8"?>
<svg width="98px" height="38px" viewBox="0 0 98 38" version="1.1" xmlns="http://www.w3.org/2000/svg" xmlns:xlink="http://www.w3.org/1999/xlink">
    <title>footer / lolgo</title>
    <g id="Symbols" stroke="none" stroke-width="1" fill="none" fill-rule="evenodd">
        <g id="chunks-/-.-footer" transform="translate(-131.000000, -60.000000)" fill="#143C7D">
            <g id="footer-/-logo-+-info">
                <g transform="translate(130.000000, 60.000000)">
                    <g id="footer-/-lolgo" transform="translate(1.000000, 0.000000)">
                        <path d="M87.0499799,14.4183673 C87.0499799,10.8137755 88.6927735,8.11033163 90.883165,8.11033163 C93.4377607,8.11033163 94.7150585,10.4534439 94.7150585,14.4183673 L87.0499799,14.4183673 Z M98,14.4183673 C98,9.37181122 95.6275064,6.48788265 90.6997714,6.48788265 C86.137532,6.48788265 83.5829363,10.4534439 83.5829363,15.3195153 C83.5829363,20.1855867 86.137532,24.151148 91.248015,24.151148 C93.9847128,24.151148 96.1751043,23.0695153 97.8178979,20.3660714 L97.0875521,19.8258929 C95.8096085,21.6281888 94.3502086,22.7091837 91.977715,22.7091837 C88.8748756,22.7091837 87.0499799,19.8258929 87.0499799,15.8603316 L97.92703,15.8603316 L98,14.4183673 Z M79.2034449,4.3252551 C79.2034449,0.720663265 78.4730991,0 75.9185034,0 L72.633562,0 L72.633562,0.720663265 L73.363262,0.720663265 C75.5530077,0.720663265 75.9185034,2.16262755 75.9185034,4.3252551 L75.9185034,23.7908163 L79.2034449,23.7908163 L79.2034449,4.3252551 Z M70.8086663,23.7908163 L70.8086663,14.0580357 C70.8086663,7.56951531 67.7058269,6.48788265 64.4208855,6.48788265 C62.230494,6.48788265 59.8586462,6.84885204 58.9461983,7.75 C58.0331047,8.65114796 58.0331047,9.73214286 58.0331047,10.9942602 L59.6758983,10.9942602 C60.2234962,8.65114796 61.6835419,7.92984694 63.6905397,7.92984694 C65.8809312,7.92984694 67.5230791,9.01147959 67.5230791,14.0580357 L66.4278833,14.0580357 C61.5014398,14.0580357 57.1206568,15.1396684 57.1206568,19.1045918 C57.1206568,23.0695153 60.4055983,24.151148 62.4138876,24.151148 C65.1512312,24.151148 66.7933791,23.0695153 67.5230791,22.1683673 L67.7058269,22.1683673 L68.9831248,23.7908163 L70.8086663,23.7908163 Z M67.5230791,20.3660714 C66.7933791,21.4477041 65.8809312,22.5293367 64.0560355,22.5293367 C62.230494,22.5293367 60.5883461,21.4477041 60.5883461,19.1045918 C60.5883461,16.9419643 62.7780919,15.5 66.4278833,15.5 L67.5230791,15.5 L67.5230791,20.3660714 Z M50.5514197,11.8954082 C50.5514197,14.9591837 48.9092718,16.0408163 46.9009825,16.0408163 C44.8939846,16.0408163 43.2518368,14.9591837 43.2518368,11.8954082 C43.2518368,8.8309949 44.8939846,7.75 46.9009825,7.75 C48.9092718,7.75 50.5514197,9.01147959 50.5514197,11.8954082 L50.5514197,11.8954082 Z M47.2664782,21.2672194 C50.1859239,21.6281888 51.6466154,23.0695153 51.6466154,25.4126276 C51.6466154,28.2965561 49.6383261,29.5580357 46.9009825,29.5580357 C44.1642846,29.5580357 42.156641,28.2965561 42.156641,25.4126276 C42.156641,23.0695153 43.4339389,21.8080357 45.2588346,21.0873724 L47.2664782,21.2672194 Z M39.9668953,11.8954082 C39.9668953,14.2385204 41.2435474,15.8603316 42.7035931,16.5816327 C42.156641,16.9419643 41.426941,17.4827806 41.426941,18.5637755 C41.426941,19.6454082 42.156641,20.3660714 42.886341,20.7270408 C40.6965953,21.4477041 38.8716996,23.0695153 38.8716996,25.4126276 C38.8716996,29.5580357 42.3393889,31 46.9009825,31 C51.4638675,31 54.9315569,29.5580357 54.9315569,25.4126276 C54.9315569,21.4477041 51.2811197,19.8258929 46.9009825,19.8258929 C44.3463868,19.8258929 43.0690889,19.4655612 43.0690889,18.5637755 C43.0690889,17.6626276 44.3463868,17.3022959 46.9009825,17.3022959 C50.7335218,17.3022959 53.8357154,16.0408163 53.8357154,11.8954082 C53.8357154,10.0931122 52.7411654,8.65114796 51.2811197,7.92984694 L51.2811197,7.75 L53.6536132,7.38966837 L53.6536132,6.48788265 L46.9009825,6.48788265 C43.0690889,6.48788265 39.9668953,7.75 39.9668953,11.8954082 L39.9668953,11.8954082 Z M25.7319338,14.4183673 C25.7319338,10.8137755 27.3747274,8.11033163 29.5644731,8.11033163 C32.1197146,8.11033163 33.3963667,10.4534439 33.3963667,14.4183673 L25.7319338,14.4183673 Z M36.6819539,14.4183673 C36.6819539,9.37181122 34.3088145,6.48788265 29.3817252,6.48788265 C24.8194859,6.48788265 22.2648902,10.4534439 22.2648902,15.3195153 C22.2648902,20.1855867 24.8194859,24.151148 29.9293231,24.151148 C32.6666667,24.151148 34.8570581,23.0695153 36.499206,20.3660714 L35.769506,19.8258929 C34.4915624,21.6281888 33.0321624,22.7091837 30.6596688,22.7091837 C27.5568295,22.7091837 25.7319338,19.8258929 25.7319338,15.8603316 L36.6089839,15.8603316 L36.6819539,14.4183673 Z M12.7749158,18.9241071 C15.1474094,22.8896684 16.7895573,24.151148 19.344153,24.151148 C20.2566008,24.151148 21.1696945,23.971301 21.5345444,23.7908163 L21.5345444,23.0695153 C19.7096487,22.8896684 18.468513,21.9885204 16.6074551,18.9241071 L12.7749158,12.6160714 C15.3301573,12.0758929 18.614453,10.6332908 18.614453,6.48788265 C18.614453,0.720663265 12.5921679,0 9.48997437,0 L7.10542736e-15,0 L7.10542736e-15,0.720663265 L0.730345741,0.720663265 C2.92009146,0.720663265 3.28558721,2.16262755 3.28558721,4.3252551 L3.28558721,23.7908163 L6.56988291,23.7908163 L6.56988291,12.7965561 L9.12512437,12.7965561 L12.7749158,18.9241071 Z M9.30722649,11.5350765 C8.39477863,11.5350765 7.30022865,11.3545918 6.56988291,11.1747449 L6.56988291,1.62181122 C7.30022865,1.44132653 8.39477863,1.26147959 9.30722649,1.26147959 C11.3148701,1.26147959 14.9646615,2.70344388 14.9646615,6.48788265 C14.9646615,10.0931122 11.3148701,11.5350765 9.30722649,11.5350765 L9.30722649,11.5350765 Z" id="Fill-26"></path>
                        <path d="M93.565919,36.8960442 L94.0693884,36.8960442 L95.2570599,35.2295965 C95.3435533,35.096859 95.4791028,34.9095808 95.4952396,34.8596399 L95.5062127,34.8596399 C95.5062127,34.9036667 95.4894304,35.096859 95.4894304,35.2295965 L95.4894304,36.8960442 L96,36.8960442 L96,34.1032987 L95.4894304,34.1032987 L94.3082137,35.7704035 C94.2165564,35.9024839 94.0861707,36.0956762 94.0642246,36.145617 L94.053897,36.145617 C94.0590608,36.1180181 94.0693884,35.9195689 94.0693884,35.7704035 L94.0693884,34.1032987 L93.565919,34.1032987 L93.565919,36.8960442 Z M90.3243505,36.8960442 L90.8284654,36.8960442 L92.0154914,35.2295965 C92.1019848,35.096859 92.2375343,34.9095808 92.2543166,34.8596399 L92.2646442,34.8596399 C92.2646442,34.9036667 92.2485073,35.096859 92.2485073,35.2295965 L92.2485073,36.8960442 L92.7584315,36.8960442 L92.7584315,34.1032987 L92.2485073,34.1032987 L91.0672906,35.7704035 C90.9743424,35.9024839 90.8446022,36.0956762 90.8233016,36.145617 L90.8116831,36.145617 C90.8174923,36.1180181 90.8284654,35.9195689 90.8284654,35.7704035 L90.8284654,34.1032987 L90.3243505,34.1032987 L90.3243505,36.8960442 Z M88.085848,36.8960442 L88.6112635,36.8960442 L88.6112635,34.5619661 L89.8040988,34.5619661 L89.8040988,34.1032987 L88.085848,34.1032987 L88.085848,36.8960442 Z M85.0334033,35.4944145 C85.0334033,34.9148377 85.456834,34.5008543 85.9764402,34.5008543 C86.4915282,34.5008543 86.9201226,34.9148377 86.9201226,35.4944145 C86.9201226,36.0792483 86.4915282,36.4991457 85.9764402,36.4991457 C85.456834,36.4991457 85.0334033,36.0792483 85.0334033,35.4944145 L85.0334033,35.4944145 Z M84.4970147,35.4944145 C84.4970147,36.3440662 85.1586251,36.9624129 85.9764402,36.9624129 C86.789737,36.9624129 87.450702,36.3440662 87.450702,35.4944145 C87.450702,34.6500197 86.789737,34.0375871 85.9712764,34.0375871 C85.1586251,34.0375871 84.4970147,34.6500197 84.4970147,35.4944145 L84.4970147,35.4944145 Z M81.4071325,36.9236431 C82.21462,36.8796162 82.5289656,36.2284137 82.5289656,34.9647786 L82.5289656,34.5448811 L83.3364531,34.5448811 L83.3364531,36.8960442 L83.8631596,36.8960442 L83.8631596,34.1032987 L82.0248507,34.1032987 L82.0248507,34.9647786 C82.0248507,35.9747667 81.8079716,36.3828361 81.4071325,36.443948 L81.4071325,36.9236431 Z M78.7297079,35.4944145 C78.7297079,34.9148377 79.1524931,34.5008543 79.6727449,34.5008543 C80.1871873,34.5008543 80.6157818,34.9148377 80.6157818,35.4944145 C80.6157818,36.0792483 80.1871873,36.4991457 79.6727449,36.4991457 C79.1524931,36.4991457 78.7297079,36.0792483 78.7297079,35.4944145 L78.7297079,35.4944145 Z M78.1926739,35.4944145 C78.1926739,36.3440662 78.8542843,36.9624129 79.6727449,36.9624129 C80.4853962,36.9624129 81.1470066,36.3440662 81.1470066,35.4944145 C81.1470066,34.6500197 80.4853962,34.0375871 79.6675811,34.0375871 C78.8542843,34.0375871 78.1926739,34.6500197 78.1926739,35.4944145 L78.1926739,35.4944145 Z M76.4692593,36.8960442 L76.9888656,36.8960442 L76.9888656,34.5619661 L77.9493303,34.5619661 L77.9493303,34.1032987 L75.5146038,34.1032987 L75.5146038,34.5619661 L76.4692593,34.5619661 L76.4692593,36.8960442 Z M73.2928837,36.0904192 C73.2928837,35.5772112 74.0190415,35.5443554 74.4089075,35.5443554 L74.544457,35.5443554 L74.544457,35.6488369 C74.544457,36.0628203 74.2688398,36.5372585 73.8079716,36.5372585 C73.4658706,36.5372585 73.2928837,36.3112104 73.2928837,36.0904192 L73.2928837,36.0904192 Z M72.7668227,36.1344461 C72.7668227,36.6588251 73.2057447,36.9624129 73.6827497,36.9624129 C74.0893981,36.9624129 74.4256898,36.7140229 74.5825399,36.3940071 L74.593513,36.3940071 C74.593513,36.3940071 74.5773761,36.4879748 74.5773761,36.6147983 L74.5773761,36.8960442 L75.070518,36.8960442 L75.070518,35.1303719 C75.070518,34.4239716 74.6741972,34.0375871 73.9867678,34.0375871 C73.60142,34.0375871 73.1844441,34.1808385 72.9617557,34.3687738 L73.173471,34.7604153 C73.395514,34.600736 73.6724221,34.4896833 73.9428756,34.4896833 C74.2843311,34.4896833 74.544457,34.6447628 74.544457,35.102773 L74.544457,35.1579708 L74.4037437,35.1579708 C73.8350815,35.1579708 72.7668227,35.2571954 72.7668227,36.1344461 L72.7668227,36.1344461 Z M68.9236727,36.8960442 L69.4329514,36.8960442 L69.552364,35.2355106 C69.5626916,35.0692601 69.5465548,34.7551584 69.5465548,34.7551584 L69.5581733,34.7551584 C69.5581733,34.7551584 69.6440213,34.9647786 69.7311602,35.1691418 L70.3817976,36.5596005 L70.8310473,36.5596005 L71.4816847,35.1632278 C71.5849605,34.9483506 71.6553171,34.7551584 71.6553171,34.7551584 L71.6662901,34.7551584 C71.6662901,34.7551584 71.6553171,35.0692601 71.6604809,35.2355106 L71.7798935,36.8960442 L72.2898177,36.8960442 L72.0509924,34.1032987 L71.4765209,34.1032987 L70.7613361,35.6816927 C70.6909795,35.8532002 70.6096498,36.0575634 70.6096498,36.0575634 L70.5986768,36.0575634 C70.5986768,36.0575634 70.5225109,35.8472861 70.4469905,35.6816927 L69.7479426,34.1032987 L69.1618525,34.1032987 L68.9236727,36.8960442 Z M65.9854768,35.4944145 C65.9854768,34.9148377 66.4082621,34.5008543 66.9285138,34.5008543 C67.4436017,34.5008543 67.8715508,34.9148377 67.8715508,35.4944145 C67.8715508,36.0792483 67.4436017,36.4991457 66.9285138,36.4991457 C66.4082621,36.4991457 65.9854768,36.0792483 65.9854768,35.4944145 L65.9854768,35.4944145 Z M65.4484428,35.4944145 C65.4484428,36.3440662 66.1100533,36.9624129 66.9285138,36.9624129 C67.7418106,36.9624129 68.403421,36.3440662 68.403421,35.4944145 C68.403421,34.6500197 67.7418106,34.0375871 66.92335,34.0375871 C66.1100533,34.0375871 65.4484428,34.6500197 65.4484428,35.4944145 L65.4484428,35.4944145 Z M63.7250282,36.8960442 L64.24528,36.8960442 L64.24528,34.5619661 L65.2050992,34.5619661 L65.2050992,34.1032987 L62.7710182,34.1032987 L62.7710182,34.5619661 L63.7250282,34.5619661 L63.7250282,36.8960442 Z M59.9309343,35.4996714 C59.9309343,36.3388093 60.5325157,36.9624129 61.3993868,36.9624129 C61.8279813,36.9624129 62.2456027,36.7856486 62.4941101,36.5155737 L62.2830402,36.1232751 C62.0719703,36.3493232 61.7408423,36.4991457 61.4374697,36.4991457 C60.8688075,36.4991457 60.4673229,36.0628203 60.4673229,35.4944145 C60.4673229,34.9260087 60.8688075,34.5008543 61.4213329,34.5008543 C61.7092141,34.5008543 61.9958044,34.6335918 62.1804099,34.8215271 L62.4295627,34.4456565 C62.1694368,34.1644106 61.7627884,34.0375871 61.3993868,34.0375871 C60.5376795,34.0375871 59.9309343,34.6723617 59.9309343,35.4996714 L59.9309343,35.4996714 Z M55.5133129,36.8960442 L56.0167823,36.8960442 L57.2044538,35.2295965 C57.2909472,35.096859 57.4264967,34.9095808 57.4426335,34.8596399 L57.4536066,34.8596399 C57.4536066,34.9036667 57.4368243,35.096859 57.4368243,35.2295965 L57.4368243,36.8960442 L57.9467484,36.8960442 L57.9467484,34.1032987 L57.4368243,34.1032987 L56.2556076,35.7704035 C56.1639503,35.9024839 56.0335646,36.0956762 56.0116185,36.145617 L56.0012909,36.145617 C56.0064547,36.1180181 56.0167823,35.9195689 56.0167823,35.7704035 L56.0167823,34.1032987 L55.5133129,34.1032987 L55.5133129,36.8960442 Z M56.7216395,33.789197 C57.1444247,33.789197 57.5239632,33.53555 57.5239632,33.0827967 L57.5239632,33 L57.1069873,33 L57.1069873,33.0716257 C57.1069873,33.3147588 56.9114087,33.4356683 56.7216395,33.4356683 C56.5318703,33.4356683 56.342101,33.3147588 56.342101,33.0716257 L56.342101,33 L55.9199613,33 L55.9199613,33.0827967 C55.9199613,33.53555 56.3040181,33.789197 56.7216395,33.789197 L56.7216395,33.789197 Z M52.4608682,35.4944145 C52.4608682,34.9148377 52.8842989,34.5008543 53.4039051,34.5008543 C53.9189931,34.5008543 54.3475875,34.9148377 54.3475875,35.4944145 C54.3475875,36.0792483 53.9189931,36.4991457 53.4039051,36.4991457 C52.8842989,36.4991457 52.4608682,36.0792483 52.4608682,35.4944145 L52.4608682,35.4944145 Z M51.9244796,35.4944145 C51.9244796,36.3440662 52.58609,36.9624129 53.4039051,36.9624129 C54.2172019,36.9624129 54.8781669,36.3440662 54.8781669,35.4944145 C54.8781669,34.6500197 54.2172019,34.0375871 53.3987413,34.0375871 C52.58609,34.0375871 51.9244796,34.6500197 51.9244796,35.4944145 L51.9244796,35.4944145 Z M48.8513797,36.8960442 L49.3767952,36.8960442 L49.3767952,35.6987778 L50.763918,35.6987778 L50.763918,36.8960442 L51.2906245,36.8960442 L51.2906245,34.1032987 L50.763918,34.1032987 L50.763918,35.2401104 L49.3767952,35.2401104 L49.3767952,34.1032987 L48.8513797,34.1032987 L48.8513797,36.8960442 Z M45.5988381,36.8960442 L46.1242537,36.8960442 L46.1242537,35.6987778 L47.5120219,35.6987778 L47.5120219,36.8960442 L48.0380829,36.8960442 L48.0380829,34.1032987 L47.5120219,34.1032987 L47.5120219,35.2401104 L46.1242537,35.2401104 L46.1242537,34.1032987 L45.5988381,34.1032987 L45.5988381,36.8960442 Z M42.5463934,35.4944145 C42.5463934,34.9148377 42.9691786,34.5008543 43.4900758,34.5008543 C44.0051638,34.5008543 44.4331128,34.9148377 44.4331128,35.4944145 C44.4331128,36.0792483 44.0051638,36.4991457 43.4900758,36.4991457 C42.9691786,36.4991457 42.5463934,36.0792483 42.5463934,35.4944145 L42.5463934,35.4944145 Z M42.0100048,35.4944145 C42.0100048,36.3440662 42.6709698,36.9624129 43.4900758,36.9624129 C44.3033726,36.9624129 44.9643376,36.3440662 44.9643376,35.4944145 C44.9643376,34.6500197 44.3033726,34.0375871 43.4842666,34.0375871 C42.6709698,34.0375871 42.0100048,34.6500197 42.0100048,35.4944145 L42.0100048,35.4944145 Z M38.9472325,36.8960442 L39.4513474,36.8960442 L40.6383734,35.2295965 C40.7255123,35.096859 40.8610618,34.9095808 40.8771986,34.8596399 L40.8881717,34.8596399 C40.8881717,34.9036667 40.8713894,35.096859 40.8713894,35.2295965 L40.8713894,36.8960442 L41.3813135,36.8960442 L41.3813135,34.1032987 L40.8713894,34.1032987 L39.6901727,35.7704035 C39.5978699,35.9024839 39.4674843,36.0956762 39.4461836,36.145617 L39.4352106,36.145617 C39.4403744,36.1180181 39.4513474,35.9195689 39.4513474,35.7704035 L39.4513474,34.1032987 L38.9472325,34.1032987 L38.9472325,36.8960442 Z M35.6411167,36.8960442 L37.9067291,36.8960442 L37.9067291,37.5584177 L38.3888979,37.5584177 L38.3888979,36.4321199 L38.0041956,36.4321199 L38.0041956,34.1032987 L37.4729708,34.1032987 L37.4729708,36.4321199 L36.1665322,36.4321199 L36.1665322,34.1032987 L35.6411167,34.1032987 L35.6411167,36.8960442 Z M33.087623,36.0904192 C33.087623,35.5772112 33.8144263,35.5443554 34.2042924,35.5443554 L34.3398419,35.5443554 L34.3398419,35.6488369 C34.3398419,36.0628203 34.0629337,36.5372585 33.602711,36.5372585 C33.26061,36.5372585 33.087623,36.3112104 33.087623,36.0904192 L33.087623,36.0904192 Z M32.561562,36.1344461 C32.561562,36.6588251 33.0011296,36.9624129 33.4774891,36.9624129 C33.8841375,36.9624129 34.2210747,36.7140229 34.3779248,36.3940071 L34.3882524,36.3940071 C34.3882524,36.3940071 34.372761,36.4879748 34.372761,36.6147983 L34.372761,36.8960442 L34.8659029,36.8960442 L34.8659029,35.1303719 C34.8659029,34.4239716 34.4695821,34.0375871 33.7815072,34.0375871 C33.3968049,34.0375871 32.9791835,34.1808385 32.7571406,34.3687738 L32.9682104,34.7604153 C33.1908988,34.600736 33.4671615,34.4896833 33.7382604,34.4896833 C34.079716,34.4896833 34.3398419,34.6447628 34.3398419,35.102773 L34.3398419,35.1579708 L34.1984831,35.1579708 C33.6298209,35.1579708 32.561562,35.2571954 32.561562,36.1344461 L32.561562,36.1344461 Z M30.4966919,36.5208306 L30.4966919,35.64358 L31.0543812,35.64358 C31.4184283,35.64358 31.6185251,35.8091733 31.6185251,36.0851623 C31.6185251,36.3440662 31.4397289,36.5208306 31.0601904,36.5208306 L30.4966919,36.5208306 Z M30.4966919,35.2847943 L30.4966919,34.4732554 L30.9949976,34.4732554 C31.3254801,34.4732554 31.4829756,34.6059929 31.4829756,34.8596399 C31.4829756,35.1192009 31.3254801,35.2847943 31.0117799,35.2847943 L30.4966919,35.2847943 Z M29.9712764,36.8960442 L31.1415201,36.8960442 C31.7379377,36.8960442 32.1503954,36.6200552 32.1503954,36.1015902 C32.1503954,35.7927454 31.9709537,35.5220134 31.6294981,35.4392167 L31.6294981,35.4333027 C31.878651,35.3235642 32.0193642,35.0916021 32.0193642,34.8215271 C32.0193642,34.3516888 31.656608,34.1032987 31.1034371,34.1032987 L29.9712764,34.1032987 L29.9712764,36.8960442 Z M26.9188317,35.4944145 C26.9188317,34.9148377 27.3416169,34.5008543 27.8618686,34.5008543 C28.3769566,34.5008543 28.8055511,34.9148377 28.8055511,35.4944145 C28.8055511,36.0792483 28.3769566,36.4991457 27.8618686,36.4991457 C27.3416169,36.4991457 26.9188317,36.0792483 26.9188317,35.4944145 L26.9188317,35.4944145 Z M26.3824431,35.4944145 C26.3824431,36.3440662 27.0434081,36.9624129 27.8618686,36.9624129 C28.6751654,36.9624129 29.3361304,36.3440662 29.3361304,35.4944145 C29.3361304,34.6500197 28.6751654,34.0375871 27.8567049,34.0375871 C27.0434081,34.0375871 26.3824431,34.6500197 26.3824431,35.4944145 L26.3824431,35.4944145 Z M23.3086978,36.8960442 L23.8347588,36.8960442 L23.8347588,35.6987778 L25.2218816,35.6987778 L25.2218816,36.8960442 L25.7479426,36.8960442 L25.7479426,34.1032987 L25.2218816,34.1032987 L25.2218816,35.2401104 L23.8347588,35.2401104 L23.8347588,34.1032987 L23.3086978,34.1032987 L23.3086978,36.8960442 Z M20.0561562,36.8960442 L20.5822172,36.8960442 L20.5822172,35.6987778 L21.96934,35.6987778 L21.96934,36.8960442 L22.4960465,36.8960442 L22.4960465,34.1032987 L21.96934,34.1032987 L21.96934,35.2401104 L20.5822172,35.2401104 L20.5822172,34.1032987 L20.0561562,34.1032987 L20.0561562,36.8960442 Z M16.8145877,36.8960442 L17.3187026,36.8960442 L18.5057286,35.2295965 C18.5928675,35.096859 18.728417,34.9095808 18.7445538,34.8596399 L18.7555269,34.8596399 C18.7555269,34.9036667 18.7387446,35.096859 18.7387446,35.2295965 L18.7387446,36.8960442 L19.2486687,36.8960442 L19.2486687,34.1032987 L18.7387446,34.1032987 L17.5575278,35.7704035 C17.4652251,35.9024839 17.3348394,36.0956762 17.3135388,36.145617 L17.3025658,36.145617 C17.3077295,36.1180181 17.3187026,35.9195689 17.3187026,35.7704035 L17.3187026,34.1032987 L16.8145877,34.1032987 L16.8145877,36.8960442 Z M12.7113119,35.5108424 C12.7113119,34.8044421 13.0908504,34.5067683 13.5026626,34.5067683 C13.958367,34.5067683 14.2778764,34.8984098 14.2778764,35.5055855 C14.2778764,36.1403601 13.9196385,36.4991457 13.4865257,36.4991457 C12.9824108,36.4991457 12.7113119,36.0076226 12.7113119,35.5108424 L12.7113119,35.5108424 Z M12.2020332,38 L12.7280942,38 L12.7280942,36.7304508 C12.7280942,36.5871994 12.7061481,36.4879748 12.7061481,36.4879748 L12.7164757,36.4879748 C12.906245,36.7856486 13.2205906,36.9624129 13.5678554,36.9624129 C14.2888494,36.9624129 14.8091012,36.3887502 14.8091012,35.4996714 C14.8091012,34.6335918 14.348233,34.0375871 13.6059384,34.0375871 C13.2044538,34.0375871 12.8578344,34.2255224 12.684202,34.5619661 L12.6738745,34.5619661 C12.6738745,34.5619661 12.6893658,34.4679984 12.6893658,34.3516888 L12.6893658,34.1032987 L12.2020332,34.1032987 L12.2020332,38 Z M10.2068743,36.8960442 L10.727126,36.8960442 L10.727126,34.5619661 L11.6869453,34.5619661 L11.6869453,34.1032987 L9.25286429,34.1032987 L9.25286429,34.5619661 L10.2068743,34.5619661 L10.2068743,36.8960442 Z M6.29336776,36.8960442 L6.81878328,36.8960442 L6.81878328,35.6987778 L8.20655156,35.6987778 L8.20655156,36.8960442 L8.73261255,36.8960442 L8.73261255,34.1032987 L8.20655156,34.1032987 L8.20655156,35.2401104 L6.81878328,35.2401104 L6.81878328,34.1032987 L6.29336776,34.1032987 L6.29336776,36.8960442 Z M3.65854446,35.1855697 C3.73471034,34.7216454 4.05421978,34.4515705 4.46086816,34.4515705 C4.81846055,34.4515705 5.11150557,34.7052175 5.12764241,35.1855697 L3.65854446,35.1855697 Z M3.09504599,35.4996714 C3.09504599,36.3276383 3.69146361,36.9624129 4.55317089,36.9624129 C4.93270938,36.9624129 5.35033081,36.8139046 5.61562046,36.5648574 L5.39357754,36.1732159 C5.1766984,36.3723222 4.87848959,36.4991457 4.58544457,36.4991457 C4.09230273,36.4991457 3.66951751,36.1732159 3.64305309,35.5719543 L5.63756656,35.5719543 C5.64789414,35.4944145 5.65886719,35.4175319 5.65886719,35.345249 C5.65886719,34.6283349 5.24705503,34.0375871 4.47184121,34.0375871 C3.69146361,34.0375871 3.09504599,34.6112498 3.09504599,35.4996714 L3.09504599,35.4996714 Z M7.10542736e-15,36.8960442 L2.26561239,36.8960442 L2.26561239,37.5584177 L2.74778118,37.5584177 L2.74778118,36.4321199 L2.36307891,36.4321199 L2.36307891,34.1032987 L1.83185412,34.1032987 L1.83185412,36.4321199 L0.525415524,36.4321199 L0.525415524,34.1032987 L7.10542736e-15,34.1032987 L7.10542736e-15,36.8960442 Z" id="Fill-28"></path>
                    </g>
                </g>
            </g>
        </g>
    </g>
</svg>